<?xml version="1.0" standalone="no"?><!DOCTYPE svg PUBLIC "-//W3C//DTD SVG 1.1//EN" "http://www.w3.org/Graphics/SVG/1.1/DTD/svg11.dtd"><svg t="1586445036660" class="icon" viewBox="0 0 1024 1024" version="1.1" xmlns="http://www.w3.org/2000/svg" p-id="1360" xmlns:xlink="http://www.w3.org/1999/xlink" width="200" height="200"><defs><style type="text/css"></style></defs><path d="M936.486 333.592c-56.376-56.404-131.372-87.466-211.184-87.466-79.744 0-154.742 31.062-211.162 87.466-56.406 56.42-87.466 131.416-87.466 211.166 0 11.812 9.546 21.372 21.328 21.372h554.668c11.75 0 21.312-9.558 21.312-21.372 0-79.75-31.062-154.746-87.496-211.166z" fill="#8CC153" p-id="1361"></path><path d="M900.424 302.78a295.306 295.306 0 0 0-58.874-33.28c-1.25 0.172-129.184 17.172-187.68 124.668l84.494 34.406c37.876-105.576 160.81-125.59 162.06-125.794z" fill="#434A54" p-id="1362"></path><path d="M983.732 664.692c-25.78-60.938-62.684-115.684-109.714-162.714-46.998-47.014-101.778-83.934-162.712-109.714-63.152-26.702-130.182-40.248-199.304-40.248-69.108 0-136.166 13.546-199.29 40.248-60.968 25.78-115.73 62.7-162.73 109.714-47.014 47.032-83.934 101.778-109.714 162.714C13.566 727.814 0.02 794.872 0.02 863.996c0 11.812 9.546 21.312 21.328 21.312h981.326c11.75 0 21.312-9.5 21.312-21.312-0.004-69.124-13.566-136.184-40.254-199.304z" fill="#A0D468" p-id="1363"></path><path d="M693.588 385.152c-45.592-17.328-93.124-27.904-141.872-31.624-30.654 15.124-272.678 147.088-253.038 531.78H512c-28.062-278.492 137.058-457.422 181.588-500.156z" fill="#656D78" p-id="1364"></path><path d="M256.008 466.68c-11.78 0-21.328-9.546-21.328-21.328V373.34c0-11.78 9.546-21.328 21.328-21.328s21.328 9.546 21.328 21.328v72.012c0 11.782-9.546 21.328-21.328 21.328z" fill="#A85D5D" p-id="1365"></path><path d="M316.35 394.684H195.666a21.384 21.384 0 0 1-18.014-9.906 21.386 21.386 0 0 1-1.282-20.53l60.34-127.996a21.32 21.32 0 0 1 19.296-12.234c8.266 0 15.782 4.766 19.296 12.234l60.342 127.996a21.38 21.38 0 0 1-1.282 20.53 21.376 21.376 0 0 1-18.012 9.906z" fill="#8CC153" p-id="1366"></path><path d="M335.646 278.922l-60.342-127.996a21.32 21.32 0 0 0-19.296-12.234 21.32 21.32 0 0 0-19.296 12.234l-60.34 127.996a21.35 21.35 0 0 0 1.282 20.514 21.346 21.346 0 0 0 18.014 9.906h120.684c7.296 0 14.092-3.734 18.014-9.906a21.35 21.35 0 0 0 1.28-20.514z" fill="#A0D468" p-id="1367"></path><path d="M983.732 664.692c-25.78-60.938-62.684-115.684-109.714-162.714-46.998-47.014-101.778-83.934-162.712-109.714-63.152-26.702-130.182-40.248-199.304-40.248-7.14 0-14.25 0.156-21.328 0.438 61.576 2.5 121.324 15.858 177.95 39.81 60.994 25.78 115.744 62.7 162.742 109.714 46.998 47.032 83.936 101.778 109.716 162.714 26.716 63.122 40.216 130.18 40.216 199.304a21.28 21.28 0 0 1-21.312 21.312h42.686c11.75 0 21.312-9.5 21.312-21.312-0.002-69.124-13.564-136.184-40.252-199.304zM936.486 333.592c-56.376-56.404-131.372-87.466-211.184-87.466-3.562 0-7.094 0.078-10.624 0.202 75.748 2.64 146.62 33.376 200.494 87.264 56.404 56.42 87.496 131.416 87.496 211.166a21.362 21.362 0 0 1-21.374 21.372h21.374c11.75 0 21.312-9.558 21.312-21.372 0.002-79.75-31.06-154.746-87.494-211.166z" fill="#FFFFFF" opacity=".2" p-id="1368"></path></svg>